<mxfile host="Electron" modified="2025-10-07T05:27:28.228Z" agent="Mozilla/5.0 (Windows NT 10.0; Win64; x64) AppleWebKit/537.36 (KHTML, like Gecko) draw.io/22.0.3 Chrome/114.0.5735.289 Electron/25.8.4 Safari/537.36" etag="h5D0HrETHQMzSM0a5gCG" version="22.0.3" type="device">
  <diagram name="ページ1" id="bvvWgh9vU2uLJQzP8Uxj">
    <mxGraphModel dx="1064" dy="673" grid="1" gridSize="10" guides="1" tooltips="1" connect="1" arrows="1" fold="1" page="1" pageScale="1" pageWidth="827" pageHeight="1169" math="0" shadow="0">
      <root>
        <mxCell id="0" />
        <mxCell id="1" parent="0" />
        <mxCell id="7sl2i-Y2lmcS3EekDP7u-4" value="" style="rounded=0;whiteSpace=wrap;html=1;" parent="1" vertex="1">
          <mxGeometry x="150" y="223" width="661" height="447" as="geometry" />
        </mxCell>
        <mxCell id="7sl2i-Y2lmcS3EekDP7u-6" value="" style="rounded=0;whiteSpace=wrap;html=1;" parent="1" vertex="1">
          <mxGeometry x="170" y="320" width="411" height="340" as="geometry" />
        </mxCell>
        <mxCell id="7sl2i-Y2lmcS3EekDP7u-1" value="" style="sketch=0;points=[[0,0,0],[0.25,0,0],[0.5,0,0],[0.75,0,0],[1,0,0],[0,1,0],[0.25,1,0],[0.5,1,0],[0.75,1,0],[1,1,0],[0,0.25,0],[0,0.5,0],[0,0.75,0],[1,0.25,0],[1,0.5,0],[1,0.75,0]];outlineConnect=0;fontColor=#232F3E;fillColor=#7AA116;strokeColor=#ffffff;dashed=0;verticalLabelPosition=bottom;verticalAlign=top;align=center;html=1;fontSize=12;fontStyle=0;aspect=fixed;shape=mxgraph.aws4.resourceIcon;resIcon=mxgraph.aws4.s3;" parent="1" vertex="1">
          <mxGeometry x="31" y="384" width="78" height="78" as="geometry" />
        </mxCell>
        <mxCell id="7sl2i-Y2lmcS3EekDP7u-3" value="" style="shape=image;aspect=fixed;image=data:image/svg+xml,PHN2ZyB3aWR0aD0iMzE3IiBoZWlnaHQ9IjEzMyIgdmlld0JveD0iMCAwIDMxNyAxMzMiIGZpbGw9Im5vbmUiIHhtbG5zPSJodHRwOi8vd3d3LnczLm9yZy8yMDAwL3N2ZyI+CjxyZWN0IHdpZHRoPSIzMTciIGhlaWdodD0iMTMzIiBmaWxsPSJ3aGl0ZSIvPgo8cGF0aCBmaWxsLXJ1bGU9ImV2ZW5vZGQiIGNsaXAtcnVsZT0iZXZlbm9kZCIgZD0iTTE4OS4zOTEgNTUuNjEzMUwxODkuMzg0IDU1LjYwODRDMTg5LjM4NCA1NS42MDg0IDE4OS4zOCA1NS42MDU4IDE4OS4zNzQgNTUuNjA1OEMxODkuMTk3IDU1LjUyOCAxODkuMDAzIDU1LjQ4NzggMTg4LjgxNyA1NS40ODc4QzE4OC41MTQgNTUuNDkgMTg4LjIyNCA1NS41ODAxIDE4Ny45NzEgNTUuNzM4M0MxODcuNzEzIDU1LjkwMTYgMTg3LjQ5NSA1Ni4xNDAxIDE4Ny4zNyA1Ni40MzhWNTYuNDQ1M0wxODEuNDY1IDcyLjYwNDRMMTc2LjkxNSA2MS43NzM1TDE3Ni45MDggNjEuNzY4NEMxNzYuNzggNjEuNDY1OCAxNzYuNTUxIDYxLjIzMTkgMTc2LjI5MSA2MS4wNjkxQzE3Ni4wMjggNjAuOTA1OCAxNzUuNzI1IDYwLjgxNiAxNzUuNDA2IDYwLjgxNkMxNzUuMDk3IDYwLjgxNiAxNzQuODA4IDYwLjkxMjYgMTc0LjU1MyA2MS4wNzEyQzE3NC4zMDIgNjEuMjM0MSAxNzQuMDc2IDYxLjQ2NTggMTczLjk0OCA2MS43Njg0TDE3My45NDUgNjEuNzczNUwxNjkuMzg2IDcyLjYxMTZMMTYzLjQ1IDU2LjQ1OTRIMTYzLjQ0NUMxNjMuMzQyIDU2LjE0NzQgMTYzLjEzMSA1NS45MDM3IDE2Mi44OCA1NS43NDNDMTYyLjYyNSA1NS41ODAxIDE2Mi4zMjcgNTUuNDkgMTYyLjAyIDU1LjQ4NzhDMTYxLjgyNCA1NS40ODc4IDE2MS42MjUgNTUuNTI4IDE2MS40MzggNTUuNjA1OEgxNjEuNDI5TDE2MS40MjIgNTUuNjEzMUMxNjAuODY5IDU1Ljg3MDggMTYwLjUzMSA1Ni40MjM5IDE2MC41MjggNTcuMDI2NkMxNjAuNTI4IDU3LjIxNiAxNjAuNTY2IDU3LjQwNDkgMTYwLjYzOSA1Ny41OTE3SDE2MC42MzdMMTY3LjkzOSA3Ny4xOTc0Vjc3LjIwNDZDMTY3Ljk5NiA3Ny4zNTA4IDE2OC4wNzYgNzcuNDk1MyAxNjguMTk0IDc3LjYzNzJDMTY4LjI3OSA3Ny43Mzg5IDE2OC40MDUgNzcuODI0IDE2OC41MzUgNzcuODk1QzE2OC41NTkgNzcuOTE4NSAxNjguNTk2IDc3Ljk1MTQgMTY4LjY1MyA3Ny45ODY5QzE2OC43MTQgNzguMDI0OSAxNjguNzkyIDc4LjA1MSAxNjguODczIDc4LjA2NTFDMTY5LjAwMyA3OC4xMDc4IDE2OS4xNzUgNzguMTcxMSAxNjkuNDA3IDc4LjE3MTFDMTY5LjcwMiA3OC4xNzExIDE2OS45NzcgNzguMDY1MSAxNzAuMjIyIDc3LjkwNjVDMTcwLjQ1MiA3Ny43NTMgMTcwLjY1NyA3Ny41MjM1IDE3MC43NzEgNzcuMjI2TDE3MC43OSA3Ny4yMTE1TDE3NS40MDYgNjYuMTc0NkwxODAuMDMgNzcuMTY2NkgxODAuMDM1QzE4MC4xNDEgNzcuNDU5OCAxODAuMzI4IDc3LjY4OTQgMTgwLjU0NiA3Ny44NTIyQzE4MC43NzUgNzguMDI0OSAxODEuMDMyIDc4LjEzMTMgMTgxLjMwNCA3OC4xNzExSDE4MS40OThDMTgxLjY4MyA3OC4xNzExIDE4MS44NjIgNzguMTM2IDE4Mi4wMTMgNzguMDc3MUMxODIuMTcyIDc4LjAxNTUgMTgyLjMgNzcuOTM1MSAxODIuNDA2IDc3Ljg1NDhDMTgyLjY1NCA3Ny42NjU0IDE4Mi44NDUgNzcuNDA1NSAxODIuOTY0IDc3LjExN1Y3Ny4xMTAxTDE5MC4yMTkgNTcuNTkxN0MxOTAuMjkgNTcuNDA0OSAxOTAuMzI3IDU3LjIxODEgMTkwLjMyNyA1Ny4wMjkyQzE5MC4zMjUgNTYuNDMxMiAxODkuOTcyIDU1Ljg2MTQgMTg5LjM5MSA1NS42MTMxWk0xNTYuMDEzIDY2LjgwNTlDMTU2LjAxMyA2NC41MDM3IDE1NS4xMjkgNjIuNDE4NiAxNTMuNzIzIDYwLjkxMjZDMTUyLjMwOSA1OS40MDQ2IDE1MC4zOTQgNTguNDgyNiAxNDguMzE0IDU4LjQ4MjZDMTQ2LjIzNCA1OC40ODI2IDE0NC4zMTUgNTkuNDA0NiAxNDIuOTAzIDYwLjkxMjZDMTQxLjQ5NCA2Mi40MTg2IDE0MC42MSA2NC41MDM3IDE0MC42MSA2Ni44MDU5QzE0MC42MSA2OS4xMDYxIDE0MS40OTQgNzEuMTcyIDE0Mi45MDMgNzIuNjY4QzE0NC4zMTUgNzQuMTY5MyAxNDYuMjM0IDc1LjA3NzIgMTQ4LjMxNCA3NS4wNzcyQzE1MC4zOTQgNzUuMDc3MiAxNTIuMzE2IDc0LjE2OTMgMTUzLjcyMyA3Mi42NjhDMTU1LjEyOSA3MS4xNzIgMTU2LjAxMyA2OS4xMDYxIDE1Ni4wMTMgNjYuODA1OVpNMTU1Ljk3MyA1OC44MTM4QzE1Ny45MjYgNjAuODg0NCAxNTkuMTEyIDYzLjcyNTcgMTU5LjExNyA2Ni44MDU5QzE1OS4xMTIgNjkuODg2MiAxNTcuOTI2IDcyLjcyNDkgMTU1Ljk3MyA3NC43OTU5QzE1NC4wMzUgNzYuODY0NCAxNTEuMzI4IDc4LjE3MTUgMTQ4LjMxOSA3OC4xNzE1QzE0NS4zMzMgNzguMTcxNSAxNDIuNjIyIDc2Ljg2NDQgMTQwLjY3NyA3NC43OTU5QzEzOC43MjkgNzIuNzI0OSAxMzcuNTIzIDY5Ljg4NjIgMTM3LjUyMyA2Ni44MDU5QzEzNy41MjMgNjMuNzI1NyAxMzguNzI5IDYwLjg4NDQgMTQwLjY3NyA1OC44MTM4QzE0Mi42MjIgNTYuNzQ3NSAxNDUuMzMzIDU1LjQ0MDQgMTQ4LjMxOSA1NS40NDA0QzE1MS4zMjggNTUuNDQwNCAxNTQuMDM1IDU2Ljc0NzUgMTU1Ljk3MyA1OC44MTM4Wk0xMjUuMjMxIDU1LjQ4MDVDMTIyLjgxIDU1LjQ4MDUgMTIwLjYgNTYuNDIzOSAxMTguOTUgNTcuOTI5NFY1Ny4wMjkyQzExOC45NDggNTYuNjE1NCAxMTguNzk0IDU2LjIyOTkgMTE4LjUyNSA1NS45NDY1QzExOC4yNjMgNTUuNjY3MyAxMTcuODc1IDU1LjQ4MDUgMTE3LjQ0OSA1NS40ODA1QzExNy4wMDkgNTUuNDgwNSAxMTYuNjEyIDU1LjY1NzkgMTE2LjMzNiA1NS45NDM5QzExNi4wNjQgNTYuMjI1MiAxMTUuOTAxIDU2LjYxNTQgMTE1LjkwMSA1Ny4wMjkyVjc3LjA5MTNMMTE1Ljk2NSA3Ny4xNTVMMTE1Ljk2NyA3Ny4xNjQ0QzExNS45ODQgNzcuMjMwNyAxMTYuMDI2IDc3LjMwMzggMTE2LjA3MSA3Ny4zNzQ3QzExNi4yODEgNzcuNzQ1OCAxMTYuNjI2IDc4LjAyNzUgMTE3LjA1NCA3OC4xNTIzTDExNy4xMTYgNzguMTcxNUgxMTcuNDQ5QzExNy42NzIgNzguMTcxNSAxMTcuODk2IDc4LjEyNDEgMTE4LjEwOSA3OC4wMjQ5QzExOC4yODYgNzcuOTM5OCAxMTguNDUyIDc3LjgwMjYgMTE4LjU4NCA3Ny42Mjc4TDExOC41ODkgNzcuNjI5OUMxMTguNjA1IDc3LjYxMzcgMTE4LjYxIDc3LjU5MjMgMTE4LjYyOSA3Ny41NzU2QzExOC42MzYgNzcuNTczNSAxMTguNjQzIDc3LjU2NjIgMTE4LjY0OCA3Ny41NTlDMTE4LjczIDc3LjQ1MyAxMTguNzk5IDc3LjM0NCAxMTguODQyIDc3LjI0MjdDMTE4Ljg4NyA3Ny4xMjE3IDExOC45MTUgNzcuMDA4NCAxMTguOTM2IDc2LjkyMDhMMTE4Ljk1IDc2Ljg2NDRWNjQuODE3OUMxMTguOTk1IDYzLjA5NDggMTE5LjcwNCA2MS41MzY3IDEyMC44NDIgNjAuNDA0NEMxMjEuOTcxIDU5LjI3MjUgMTIzLjUyIDU4LjU3MjggMTI1LjIzMSA1OC41NzI4QzEyNi45NzEgNTguNTcyOCAxMjguNTI0IDU5LjI3MjUgMTI5LjY0OSA2MC40MDQ0QzEzMC43NzkgNjEuNTMyNCAxMzEuNDY1IDYzLjA4NzUgMTMxLjQ2NSA2NC44MDE2Vjc2LjYzMDFDMTMxLjQ2NSA3Ny4wNjI3IDEzMS42NDkgNzcuNDYyNCAxMzEuOTI4IDc3LjczNjRDMTMyLjIxNCA3OC4wMTA0IDEzMi42MDQgNzguMTcxNSAxMzMuMDExIDc4LjE3MTVDMTMzLjQyNCA3OC4xNzE1IDEzMy44MTIgNzguMDEwNCAxMzQuMDk2IDc3LjczNjRDMTM0LjM4NCA3Ny40NjI0IDEzNC41NTkgNzcuMDYyNyAxMzQuNTU5IDc2LjYzMDFWNjQuODAxNkMxMzQuNTU5IDU5LjY5NTcgMTMwLjM4OSA1NS40ODc4IDEyNS4yMzEgNTUuNDgwNVpNMjc3LjYxMyA2NC42MTIyQzI3Ni43MzQgNjEuMDQ1MSAyNzMuNjAxIDU4LjUwMzkgMjcwLjAyNyA1OC41MTEyQzI2Ni4zNjMgNTguNTExMiAyNjMuMjc0IDYwLjk5ODEgMjYyLjMxNiA2NC42MTIySDI3Ny42MTNaTTI4MSA2Ni4wNzMzVjY2LjIyNjdDMjgxIDY2LjY1NDYgMjgwLjgwOCA2Ny4wMzk4IDI4MC41MTggNjcuMjkyOEMyODAuMjMgNjcuNTQ4IDI3OS44NTQgNjcuNjgwNSAyNzkuNDUgNjcuNjg1MkgyNjIuMTAxQzI2Mi41NDMgNzEuOTE4NyAyNjUuOTIzIDc1LjA0NDMgMjY5Ljk1OCA3NS4wNzcySDI3MC45ODJDMjcyLjMxOCA3NS4wODE5IDI3My42MTggNzQuNjIxMSAyNzQuNzYyIDczLjg1NzJDMjc1LjkwOCA3My4xMDExIDI3Ni44OTkgNzIuMDQ0NCAyNzcuNTk2IDcwLjg4MTNDMjc3Ljc0IDcwLjYzMjkgMjc3Ljk0NiA3MC40NDQgMjc4LjE3IDcwLjMyODJDMjc4LjQgNzAuMjAyOSAyNzguNjQ2IDcwLjE0NjEgMjc4Ljg5NCA3MC4xNDYxQzI3OS4xNjggNzAuMTQ2MSAyNzkuNDQgNzAuMjE3IDI3OS42NzkgNzAuMzYxMUwyNzkuNjk1IDcwLjM2ODNMMjc5LjcxNCA3MC4zODI1QzI4MC4xNDkgNzAuNzAxOCAyODAuNDIxIDcxLjE4ODYgMjgwLjQyMSA3MS43MjI5QzI4MC40MjEgNzEuOTk0OCAyODAuMzUgNzIuMjcxNCAyODAuMjAxIDcyLjUyMTlMMjgwLjE5NyA3Mi41MzEzTDI4MC4xOTIgNzIuNTM2QzI3OS4yMjIgNzQuMDc3NCAyNzcuOTAxIDc1LjQ4MzcgMjc2LjMzMiA3Ni41MDI3QzI3NC43NiA3Ny41MjM5IDI3Mi45MzcgNzguMTcxNSAyNzAuOTgyIDc4LjE3MTVIMjY5Ljk0MkMyNjYuODk3IDc4LjE1MDEgMjY0LjE0NiA3Ni44NjQ0IDI2Mi4xNjMgNzQuODA3NUMyNjAuMTg0IDcyLjc1ODIgMjU4Ljk2NCA2OS45NDI2IDI1OC45NjQgNjYuODQ4N0MyNTguOTY0IDYzLjcwMjIgMjYwLjE5NCA2MC44NDY4IDI2Mi4xODkgNTguNzgwNUMyNjQuMTg0IDU2LjcxNzIgMjY2Ljk1NiA1NS40NDA0IDI3MC4wMjcgNTUuNDQwNEMyNzIuOTU4IDU1LjQ0MDQgMjc1LjU5MSA1Ni42MDYgMjc3LjU0MiA1OC41MTM4QzI3OS40OTIgNjAuNDIxMSAyODAuNzY2IDYzLjA3MDggMjgwLjk5MyA2Ni4wNTE5TDI4MSA2Ni4wNzMzWk0yMDkuODQxIDQ2LjEwMzFDMjA5LjQxOCA0Ni4xMDMxIDIwOS4wMyA0Ni4yODA1IDIwOC43NTEgNDYuNTU5NkMyMDguNDcyIDQ2LjgzNjEgMjA4LjI5NSA0Ny4yMjYgMjA4LjI5NSA0Ny42NDkyVjc2LjYzMDFDMjA4LjI5NSA3Ny4wNTMzIDIwOC40NzIgNzcuNDQxIDIwOC43NTEgNzcuNzE1NEMyMDkuMDMgNzcuOTg5NCAyMDkuNDE4IDc4LjE3MTUgMjA5Ljg0MSA3OC4xNzE1QzIxMC43MTggNzguMTcxNSAyMTEuNDI3IDc3LjQ4MTIgMjExLjQzMiA3Ni42MzAxVjQ3LjY0OTJDMjExLjQyNyA0Ni43OTYgMjEwLjcxOCA0Ni4xMDMxIDIwOS44NDEgNDYuMTAzMVpNMTA4Ljc0OCA2Ni4yNTI4QzEwNy41IDY1LjY2NDIgMTA2LjA4NCA2NS4yMjk1IDEwNC42NzEgNjQuNzYxQzEwMy4zNyA2NC4zMjE2IDEwMi4wNTEgNjMuOTQ4IDEwMS4xMSA2My40NTY0QzEwMC42MzcgNjMuMjAzNCAxMDAuMjY5IDYyLjkzNjIgMTAwLjAzIDYyLjYzNjFDOTkuNzg2NCA2Mi4zMzYxIDk5LjY2ODQgNjIuMDMwOSA5OS42NjEyIDYxLjYxNDlDOTkuNjYzNyA2MS4wNDUxIDk5LjgyOTIgNjAuNTg2NSAxMDAuMTA4IDYwLjE4QzEwMC41MzEgNTkuNTcyNiAxMDEuMjQgNTkuMDk5OCAxMDIuMDE2IDU4Ljc5NDZDMTAyLjc4MiA1OC40ODc3IDEwMy42MTEgNTguMzQzMiAxMDQuMjA1IDU4LjM0MzJDMTA1Ljk1OCA1OC4zNDU4IDEwNy4wNjcgNTguOTI5NyAxMDcuOTE4IDU5LjUzNDVDMTA4LjMzOSA1OS44Mzk3IDEwOC42OTQgNjAuMTQ5MiAxMDkuMDI5IDYwLjQwNDRDMTA5LjIwMiA2MC41MzY5IDEwOS4zNjMgNjAuNjU3NCAxMDkuNTQ5IDYwLjc0NzJDMTA5LjcyNiA2MC44MzQ4IDEwOS45MzUgNjAuOTA1OCAxMTAuMTYyIDYwLjkwNThDMTEwLjMwNiA2MC45MDU4IDExMC40NSA2MC44Nzk3IDExMC41ODIgNjAuODIyOUMxMTAuNzIyIDYwLjc2NjQgMTEwLjg0MyA2MC42ODYxIDExMC45NTggNjAuNTg2NUMxMTEuMDcyIDYwLjQ4MDUgMTExLjE2OSA2MC4zNTI3IDExMS4yMzcgNjAuMjEwOEMxMTEuMjk5IDYwLjA2NDEgMTExLjMyNyA1OS45MTI4IDExMS4zMjcgNTkuNzY0MUMxMTEuMzI3IDU5LjQ4OTYgMTExLjIzOSA1OS4yMzIzIDExMS4xMTQgNTguOTkwOEMxMTAuODggNTguNTY1NSAxMTAuNTIxIDU4LjE1OSAxMTAuMDYyIDU3Ljc1MjVDMTA5LjM4MSA1Ny4xNDcyIDEwOC40ODMgNTYuNTcwNiAxMDcuNTE2IDU2LjEzNTRDMTA2LjU0NyA1NS43MDA3IDEwNS41MDcgNTUuNDA0OSAxMDQuNTE3IDU1LjQwNDlDMTAyLjIyMSA1NS40MDQ5IDEwMC4zMDQgNTUuOTI1MSA5OC45MTE4IDU2Ljg4MjZDOTguMTg2IDU3LjM4MzYgOTcuNTQ3OCA1Ny45MzIgOTcuMDk2NCA1OC42ODg2Qzk2LjYzNzggNTkuNDQ3MyA5Ni4zODI2IDYwLjM4MzQgOTYuMzQ5MyA2MS42MDA4Qzk2LjM0NzEgNjEuNjU1MSA5Ni4zNDcxIDYxLjcwOTQgOTYuMzQ3MSA2MS43NjM3Qzk2LjM0MjQgNjIuOTQ1NiA5Ni43MjI4IDYzLjkxOTggOTcuMzIwOSA2NC42ODMyQzk4LjIyODggNjUuODMyMiA5OS41NzYxIDY2LjUyIDEwMC44OTggNjcuMDA2OEMxMDIuMjE3IDY3LjQ5MzcgMTAzLjUzNiA2Ny43ODQ4IDEwNC4zNjggNjguMDYzNUMxMDUuNTQgNjguNDUzOCAxMDYuNzg2IDY4Ljg3NjUgMTA3LjY5MyA2OS40MzY5QzEwOC4xNDUgNjkuNzIyOSAxMDguNTEyIDcwLjAzMDIgMTA4Ljc2IDcwLjM2ODNDMTA5LjAwMSA3MC43MTU5IDEwOS4xMzggNzEuMDc0OSAxMDkuMTQzIDcxLjUyODlWNzEuNTYyMkMxMDkuMTQgNzIuMjE5MiAxMDguOTQ3IDcyLjczNDcgMTA4LjYyNyA3My4xNzY3QzEwOC4xNDUgNzMuODMzNyAxMDcuMzQ0IDc0LjMxNTkgMTA2LjQ5MyA3NC42MjExQzEwNS42NDQgNzQuOTE4NiAxMDQuNzYyIDc1LjA0NDMgMTA0LjE5NSA3NS4wNDQzQzEwMi4xOTMgNzUuMDQ0MyAxMDAuODUzIDc0LjU2MTcgOTkuODgxMyA3NC4wNzc0Qzk5LjM5NCA3My44MzM3IDk4Ljk5OTUgNzMuNTkyNiA5OC42NDI1IDczLjM4OTJDOTguNDY1MiA3My4yOTIxIDk4LjI5OTcgNzMuMjAyNCA5OC4xMjQ5IDczLjEzMTRDOTcuOTU0MyA3My4wNjA5IDk3Ljc3MjcgNzMuMDE1NiA5Ny41NjcxIDczLjAxNTZDOTcuNDQxOCA3My4wMTU2IDk3LjMwNDYgNzMuMDM2OSA5Ny4xNzg5IDczLjA4NjVDOTcuMDUxNiA3My4xNDEyIDk2LjkzNTcgNzMuMjE2OSA5Ni44Mzg3IDczLjMwODhDOTYuNzA0IDczLjQzOTIgOTYuNTg2MSA3My41ODU0IDk2LjUwMzEgNzMuNzUzNEM5Ni40MjI4IDczLjkyMTMgOTYuMzgyNiA3NC4wOTgzIDk2LjM4MjYgNzQuMjgzQzk2LjM4MjYgNzQuNTg1NiA5Ni40OTU5IDc0Ljg2MjIgOTYuNjU3IDc1LjExMjdDOTYuOTA5NiA3NS40NzQzIDk3LjI4MTEgNzUuNzk4MyA5Ny43NDQgNzYuMTIxOUM5OC4yMjE1IDc2LjQ0MTIgOTguNzkxMyA3Ni43NTU0IDk5LjQ0ODMgNzcuMDY1M0MxMDAuOTA1IDc3Ljc1MyAxMDIuNzcyIDc4LjExMjUgMTA0LjE5IDc4LjEzNkgxMDQuMTk1QzEwNi40MDEgNzguMTM2IDEwOC4zMDYgNzcuNjI3OCAxMDkuOTExIDc2LjQ0NTlWNzYuNDQzM0gxMDkuOTEzQzExMS40ODMgNzUuMjYxNCAxMTIuNDU5IDczLjUwNSAxMTIuNDU5IDcxLjUyMkMxMTIuNDU5IDcwLjQzMiAxMTIuMjA0IDY5LjUwNzkgMTExLjc1NyA2OC43NTEzQzExMS4wODQgNjcuNjA0OSAxMDkuOTg5IDY2Ljg0ODcgMTA4Ljc0OCA2Ni4yNTI4Wk0yMzMuMTUzIDY2LjgwNTlDMjMzLjE1MyA2NC40ODIzIDIzMi4yNzYgNjIuMzk5NyAyMzAuODc1IDYwLjg5NjRDMjI5LjQ3NSA1OS4zOTc3IDIyNy41NTMgNTguNDg3NyAyMjUuNDUxIDU4LjQ4M0MyMjMuMzY3IDU4LjQ4MyAyMjEuNDUyIDU5LjM5NzcgMjIwLjAzOCA2MC44OTY0QzIxOC42MzQgNjIuMzk5NyAyMTcuNzQ2IDY0LjQ4MjMgMjE3Ljc0NiA2Ni44MDU5QzIxNy43NDYgNjkuMTI3NCAyMTguNjM0IDcxLjE5NTkgMjIwLjAzOCA3Mi42ODczQzIyMS40NDUgNzQuMTc5MSAyMjMuMzY3IDc1LjA3NzIgMjI1LjQ1MSA3NS4wNzcyQzIyNy41NTggNzUuMDc3MiAyMjkuNDggNzQuMTc5MSAyMzAuODc5IDcyLjY5MkMyMzIuMjc2IDcxLjE5NTkgMjMzLjE1MyA2OS4xMjk2IDIzMy4xNTMgNjYuODA1OVpNMjM1Ljc4MiA1NS44NzA4QzIzNi4wNjggNTYuMTQ3NCAyMzYuMjQ1IDU2LjU0NyAyMzYuMjQ1IDU2Ljk3OTJWNzYuNjMwMUMyMzYuMjQ1IDc3LjA1MzMgMjM2LjA2MyA3Ny40NDEgMjM1Ljc5MiA3Ny43MTU0QzIzNS41MTIgNzcuOTg5NCAyMzUuMTI3IDc4LjE3MTUgMjM0LjcwMiA3OC4xNzE1QzIzNC4yNzYgNzguMTcxNSAyMzMuODg2IDc3Ljk4OTQgMjMzLjYxMiA3Ny43MTU0QzIzMy4zMzMgNzcuNDQxIDIzMy4xNTMgNzcuMDUzMyAyMzMuMTUzIDc2LjYzMDFWNzQuNzEzQzIzMS4yMDggNzYuODE0OCAyMjguNDc1IDc4LjE3MTUgMjI1LjQ1MSA3OC4xNzE1QzIyMi40NDMgNzguMTcxNSAyMTkuNzMzIDc2Ljg3ODUgMjE3Ljc5MyA3NC44MDc1QzIxNS44NDUgNzIuNzQ2MyAyMTQuNjU0IDY5LjkwNzEgMjE0LjY1NCA2Ni44MDU5QzIxNC42NTQgNjMuNzA0OCAyMTUuODQ1IDYwLjg2MzEgMjE3Ljc5MyA1OC43OTk3QzIxOS43MzMgNTYuNzMxMyAyMjIuNDQzIDU1LjQ0MDQgMjI1LjQ1MSA1NS40NDA0QzIyOC40NzMgNTUuNDQwNCAyMzEuMjA4IDU2Ljc1NzQgMjMzLjE1MyA1OC44NDkzVjU2Ljk3OTJDMjMzLjE1MyA1Ni41NDcgMjMzLjMzMSA1Ni4xNDc0IDIzMy42MTcgNTUuODcwOEMyMzMuOTAzIDU1LjU5OSAyMzQuMjg4IDU1LjQ0MDQgMjM0LjcwMiA1NS40NDA0QzIzNS4xMTEgNTUuNDQwNCAyMzUuNTAxIDU1LjU5OSAyMzUuNzgyIDU1Ljg3MDhaTTI1Ny42MDggNTcuODYzNkMyNTcuOTE1IDU3LjU1ODQgMjU4LjA4MiA1Ny4xNTQgMjU4LjA4MiA1Ni43NTI3QzI1OC4wODIgNTYuMzU3NyAyNTcuOTE1IDU1Ljk2MjcgMjU3LjYwNSA1NS42NzY4SDI1Ny42MDhDMjU3LjYwNSA1NS42NjczIDI1Ny41OTggNTUuNjY3MyAyNTcuNTk4IDU1LjY2NzNDMjU3LjU5NiA1NS42NjA1IDI1Ny41OTEgNTUuNjU3OSAyNTcuNTkxIDU1LjY1NzlIMjU3LjU4NkMyNTcuMjg4IDU1LjM2NDcgMjU2LjkwNSA1NS4yMDQgMjU2LjUxIDU1LjIwNEMyNTYuMTExIDU1LjIwNCAyNTUuNzIxIDU1LjM2OTggMjU1LjQyMyA1NS42NjczTDI0My4zMzcgNjcuNDQ2N1Y0Ny42NDkyQzI0My4zMzcgNDYuNzk2IDI0Mi42MjMgNDYuMTAzMSAyNDEuNzQ2IDQ2LjEwMzFDMjQxLjMyMyA0Ni4xMDMxIDI0MC45MzUgNDYuMjgwNSAyNDAuNjU5IDQ2LjU1OTZDMjQwLjM4NCA0Ni44MzYxIDI0MC4yIDQ3LjIyNiAyNDAuMiA0Ny42NDkyVjc2LjYzMDFDMjQwLjIgNzcuMDUzMyAyNDAuMzg0IDc3LjQ0MSAyNDAuNjU5IDc3LjcxNTRDMjQwLjkzNSA3Ny45ODk0IDI0MS4zMjMgNzguMTcxNSAyNDEuNzQ2IDc4LjE3MTVDMjQyLjYyMyA3OC4xNzE1IDI0My4zMzcgNzcuNDgxMiAyNDMuMzM3IDc2LjYzMDFWNzEuODQ4MkwyNDcuMjczIDY3LjkxNjlMMjU1LjI5NiA3Ny41OTdDMjU1LjQ0NyA3Ny44MTkzIDI1NS42NTMgNzcuOTcyOCAyNTUuODU2IDc4LjA1MzFDMjU2LjA4OCA3OC4xNDA3IDI1Ni4zMTIgNzguMTcxNSAyNTYuNTEzIDc4LjE3MTVDMjU2Ljc4OSA3OC4xNzE1IDI1Ny4xOCA3OC4xMTI1IDI1Ny41MjMgNzcuODQyOEwyNTcuNTQxIDc3LjgzMTNMMjU3LjU2MiA3Ny44MDk5QzI1Ny44ODQgNzcuNDkzMiAyNTguMDY2IDc3LjA3MjEgMjU4LjA2NiA3Ni42NDIxQzI1OC4wNjYgNzYuMjgwNSAyNTcuOTMyIDc1LjkxMTYgMjU3LjY4MyA3NS42MTYyVjc1LjYxMTVMMjQ5LjUxNiA2NS42ODNMMjU3LjYgNTcuODYzNkgyNTcuNjA4Wk0yMDMuNDYzIDQ2LjE3MTlIMjAzLjExOEMyMDMuMDczIDQ2LjE3MTkgMjAzLjAyOCA0Ni4xNzY2IDIwMi45ODEgNDYuMTc4N0MyMDIuOTM4IDQ2LjE3NjYgMjAyLjg5MyA0Ni4xNzE5IDIwMi44NDkgNDYuMTcxOUMyMDEuOTU3IDQ2LjE3MTkgMjAxLjA5MiA0Ni4yNzMyIDIwMC4yODMgNDYuNTQyOUMxOTkuNDg3IDQ2LjgwNzUgMTk4Ljc1MiA0Ny4yNDQ4IDE5OC4xODIgNDcuOTA5NUwxOTguMTggNDcuOTA2OUwxOTguMTc4IDQ3LjkwOTVWNDcuOTExNkMxOTcuNTg5IDQ4LjU2NjUgMTk3LjIwMSA0OS4zNDg3IDE5Ni45NjUgNTAuMjM3OEMxOTYuNzI5IDUxLjEzMTIgMTk2LjYzMSA1Mi4xMzgzIDE5Ni42MjIgNTMuMjgyMlY1NS40OTc2SDE5NC4xOEMxOTMuMzMyIDU1LjUwMjMgMTkyLjY1OCA1Ni4xODA3IDE5Mi42NTggNTcuMDAxQzE5Mi42NTMgNTcuNDQzIDE5Mi44MjYgNTcuODQ5NSAxOTMuMTA1IDU4LjE0MjdDMTkzLjM4NiA1OC40MzEzIDE5My43NzEgNTguNjIwMiAxOTQuMTk5IDU4LjY0MzdIMTk2LjYyMlY3Ni42NjgyTDE5Ni42MiA3Ni43MTA1QzE5Ni42MiA3Ny4xMzM3IDE5Ni43OTcgNzcuNTIzNSAxOTcuMDgzIDc3LjgwMjZDMTk3LjM2NiA3OC4wNzcxIDE5Ny43NjQgNzguMjM5OSAxOTguMTk3IDc4LjIzOTlDMTk5LjAxOSA3OC4yMzUyIDE5OS42OTUgNzcuNTY0MSAxOTkuNjk3IDc2LjcxMDVWNTguNjQzN0gyMDIuMzI0QzIwMi43NDcgNTguNjIwMiAyMDMuMTM3IDU4LjQ0MjggMjAzLjQxNiA1OC4xNTY4QzIwMy43MDIgNTcuODcwOSAyMDMuODc3IDU3LjQ2OTEgMjAzLjg3NyA1Ny4wMzM5VjU2Ljk3NDlDMjAzLjg2NyA1Ni4xNjQgMjAzLjE4OSA1NS40OTc2IDIwMi4zNCA1NS40OTc2SDE5OS42OTdWNTMuMjkxNkMxOTkuNzE0IDUyLjMxNTcgMTk5LjgxNiA1MS41ODUyIDE5OS45NjIgNTEuMDUzNEMyMDAuMTA0IDUwLjUxOTEgMjAwLjI5OCA1MC4xODMxIDIwMC40NzMgNDkuOTc1NEMyMDAuNjQzIDQ5Ljc5MDcgMjAwLjg2NSA0OS42MzczIDIwMS4yMjcgNDkuNTE0MUMyMDEuNTkxIDQ5LjM5NjIgMjAyLjA5NSA0OS4zMjA1IDIwMi43NzUgNDkuMzIwNUgyMDIuODU2QzIwMi44OTYgNDkuMzIwNSAyMDIuOTM4IDQ5LjMxMzIgMjAyLjk3NiA0OS4zMTMyQzIwMy4wMjQgNDkuMzEzMiAyMDMuMDY4IDQ5LjMyMDUgMjAzLjExOCA0OS4zMjA1SDIwMy4zMTdIMjAzLjQ2M0MyMDQuMzM1IDQ5LjMyMDUgMjA1LjAzOCA0OC42MTYxIDIwNS4wMzggNDcuNzQ2MkMyMDUuMDM4IDQ2Ljg3NjMgMjA0LjMzNSA0Ni4xNzE5IDIwMy40NjMgNDYuMTcxOVpNNDcuNzcyMSA2Ny44MjkzQzQ3Ljg5NzMgNjcuNDM0MyA0Ny45NDk1IDY3LjAyNzggNDcuOTQwMSA2Ni42MjZDNDcuOTI1NSA2Ni4zMzUzIDQ3Ljg4NzkgNjYuMDQ0NiA0Ny44MDU0IDY1Ljc1NEM0Ny41NTcxIDY0Ljg1MDggNDYuOTY4NSA2NC4wNDQ2IDQ2LjA4NjYgNjMuNTM2M0wzMy41NDM5IDU2LjI5MzZDMzEuNzczMyA1NS4yNzQ1IDI5LjUxNiA1NS44ODAyIDI4LjQ5OTUgNTcuNjQ4MkMyNy40NzM2IDU5LjQxNCAyOC4wNzg5IDYxLjY2ODggMjkuODQ5NCA2Mi42OTA0TDM2Ljg1ODMgNjYuNzQ0NEwyOS44NDk0IDcwLjc4NjRDMjguMDc4OSA3MS44MTAxIDI3LjQ3NTcgNzQuMDY1IDI4LjQ5OTUgNzUuODM4QzI5LjUxNiA3Ny42MDEzIDMxLjc3MzMgNzguMjA0NCAzMy41NDM5IDc3LjE4NTRMNDYuMDg2NiA2OS45Mzc5QzQ2LjkzMyA2OS40NTEgNDcuNTA3NSA2OC42ODcyIDQ3Ljc3MjEgNjcuODI5M1pNNTEuMTc1OSA3NC42MTZDNTAuNDU1MiA3NC41NTQ0IDQ5LjcwNTkgNzQuNzA1NyA0OS4wMzIyIDc1LjA5ODFMMzYuNDggODIuMzM2MkMzNC43MTQyIDgzLjM1NzQgMzQuMTExMSA4NS42MjQyIDM1LjEzMDEgODcuMzkyNkMzNi4xNTM5IDg5LjE1NjIgMzguNDA5MSA4OS43NjM2IDQwLjE3MjQgODguNzM3OEw0Ny4yMDQ5IDg0LjY4MTJWOTIuNzg3QzQ3LjIwNDkgOTQuODI5NCA0OC44NTcgOTYuNDg0MSA1MC45MDE5IDk2LjQ4NDFDNTIuOTM3IDk2LjQ4NDEgNTQuNTk0MyA5NC44Mjk0IDU0LjU5NDMgOTIuNzg3Vjc4LjI5NjNDNTQuNTk0MyA3Ni4zNTEgNTMuMDg2MiA3NC43NTI3IDUxLjE3NTkgNzQuNjE2Wk02NC4wMzA3IDU4Ljg2NzdDNjQuNzQ5MyA1OC45MjY3IDY1LjQ5NjUgNTguNzczMiA2Ni4xNzAxIDU4LjM4NTVMNzguNzE5OCA1MS4xNDA2QzgwLjQ4ODEgNTAuMTE5IDgxLjA4ODMgNDcuODYxNiA4MC4wNzE4IDQ2LjA4OUM3OS4wNTMyIDQ0LjMyMzEgNzYuNzk1OCA0My43MTc5IDc1LjAyOTYgNDQuNzM5MUw2OC4wMDIyIDQ4LjgwMDNWNDAuNjkxOUM2OC4wMDIyIDM4LjY1NDcgNjYuMzQ5NyAzNyA2NC4zMDUyIDM3QzYyLjI2MDIgMzcgNjAuNjEyNCAzOC42NTQ3IDYwLjYxMjQgNDAuNjkxOVY1NS4xODI2QzYwLjYxMjQgNTcuMTI1OCA2Mi4xMTYyIDU4LjcyNjIgNjQuMDMwNyA1OC44Njc3Wk0zNi40OCA1MS4xNDA2TDQ5LjAzMjIgNTguMzg1NUM0OS43MDU5IDU4Ljc3MzIgNTAuNDU1MiA1OC45MjY3IDUxLjE3NTkgNTguODY3N0M1My4wODYyIDU4LjcyNjIgNTQuNTk0MyA1Ny4xMjU4IDU0LjU5NDMgNTUuMTgyNlY0MC42OTE5QzU0LjU5NDMgMzguNjU0NyA1Mi45MzcgMzcgNTAuOTAxOSAzN0M0OC44NTcgMzcgNDcuMjA0OSAzOC42NTQ3IDQ3LjIwNDkgNDAuNjkxOVY0OC44MDAzTDQwLjE3MjQgNDQuNzM5MUMzOC40MDkxIDQzLjcxNzkgMzYuMTUzOSA0NC4zMjMxIDM1LjEzMDEgNDYuMDg5QzM0LjExMTEgNDcuODYxNiAzNC43MTQyIDUwLjExOSAzNi40OCA1MS4xNDA2Wk02MC4wNjg3IDY2LjcxMzZDNjAuMDY4NyA2Ni41MDMzIDU5Ljk0MTMgNjYuMjEwMSA1OS43OTI1IDY2LjA1NDFMNTguMjgxOSA2NC41NTA3QzU4LjEzMzIgNjQuNDAxOSA1Ny44Mzk5IDY0LjI3ODggNTcuNjI5MiA2NC4yNzg4SDU3LjU3MDJDNTcuMzU5OSA2NC4yNzg4IDU3LjA2NzEgNjQuNDAxOSA1Ni45MjA1IDY0LjU1MDdMNTUuNDA5OCA2Ni4wNTQxQzU1LjI1ODUgNjYuMjEwMSA1NS4xNDI3IDY2LjUwMzMgNTUuMTQyNyA2Ni43MTM2VjY2Ljc3MjZDNTUuMTQyNyA2Ni45ODA4IDU1LjI1ODUgNjcuMjcxNCA1NS40MDk4IDY3LjQyMjhMNTYuOTIwNSA2OC45MzA4QzU3LjA2OTIgNjkuMDc5NiA1Ny4zNTk5IDY5LjIwMjcgNTcuNTcwMiA2OS4yMDI3SDU3LjYyOTJDNTcuODM5OSA2OS4yMDI3IDU4LjEzMzIgNjkuMDc5NiA1OC4yODE5IDY4LjkzMDhMNTkuNzkyNSA2Ny40MjI4QzU5Ljk0MTMgNjcuMjcxNCA2MC4wNjg3IDY2Ljk4MDggNjAuMDY4NyA2Ni43NzI2VjY2LjcxMzZaTTY0LjIzODkgNjguMTYwMUw1OS4wMjE4IDczLjM3MDRDNTguODcyNyA3My41MjM4IDU4LjU4NDUgNzMuNjQ5MSA1OC4zNjcgNzMuNjQ5MUg1Ny45ODg3SDU3LjIxOEg1Ni44MzI4QzU2LjYyMjEgNzMuNjQ5MSA1Ni4zMjkzIDczLjUyMzggNTYuMTc4IDczLjM3MDRMNTAuOTYzNSA2OC4xNjAxQzUwLjgxNDMgNjguMDEzNSA1MC42OTM3IDY3LjcxODEgNTAuNjkzNyA2Ny41MTA0VjY3LjEyNDhWNjYuMzU0MVY2NS45NzM3QzUwLjY5MzcgNjUuNzYwOCA1MC44MTQzIDY1LjQ2NTQgNTAuOTYzNSA2NS4zMTY3TDU2LjE3OCA2MC4xMDY1QzU2LjMyOTMgNTkuOTUzIDU2LjYyMjEgNTkuODMyNSA1Ni44MzI4IDU5LjgzMjVINTcuMjE4SDU3Ljk4ODdINTguMzY3QzU4LjU3OTggNTkuODMyNSA1OC44NzI3IDU5Ljk1MyA1OS4wMjE4IDYwLjEwNjVMNjQuMjM4OSA2NS4zMTY3QzY0LjM4NzcgNjUuNDY1NCA2NC41MDgyIDY1Ljc2MDggNjQuNTA4MiA2NS45NzM3VjY2LjM1NDFWNjcuMTI0OFY2Ny41MTA0QzY0LjUwODIgNjcuNzE4MSA2NC4zODc3IDY4LjAxMzUgNjQuMjM4OSA2OC4xNjAxWk03OC43MTk4IDgyLjMzNjJMNjYuMTcwMSA3NS4wOTgxQzY1LjQ5NjUgNzQuNzA1NyA2NC43NDkzIDc0LjU1NDQgNjQuMDMwNyA3NC42MTZDNjIuMTE2MiA3NC43NTI3IDYwLjYxMjQgNzYuMzUxIDYwLjYxMjQgNzguMjk2M1Y5Mi43ODdDNjAuNjEyNCA5NC44Mjk0IDYyLjI2MDIgOTYuNDg0MSA2NC4zMDUyIDk2LjQ4NDFDNjYuMzQ5NyA5Ni40ODQxIDY4LjAwMjIgOTQuODI5NCA2OC4wMDIyIDkyLjc4N1Y4NC42ODEyTDc1LjAyOTYgODguNzM3OEM3Ni43OTU0IDg5Ljc2MzYgNzkuMDUzMiA4OS4xNTYyIDgwLjA3MTggODcuMzkyNkM4MS4wODgzIDg1LjYyNDIgODAuNDg4MSA4My4zNTc0IDc4LjcxOTggODIuMzM2MlpNODUuMzU1MSA2Mi42OTA0TDc4LjM0NjIgNjYuNzQ0NEw4NS4zNTUxIDcwLjc4NjRDODcuMTI1NyA3MS44MTAxIDg3LjczMDkgNzQuMDY1IDg2LjcwNzIgNzUuODM4Qzg1LjY4NiA3Ny42MDEzIDgzLjQyNjUgNzguMjA0NCA4MS42NjI4IDc3LjE4NTRMNjkuMTEwNiA2OS45Mzc5QzY4LjI3MzYgNjkuNDUxIDY3LjY5MjMgNjguNjg3MiA2Ny40MzQ2IDY3LjgyOTNDNjcuMzExOSA2Ny40MzQzIDY3LjI1NSA2Ny4wMjc4IDY3LjI2OTEgNjYuNjI2QzY3LjI3NjQgNjYuMzM1MyA2Ny4zMTg3IDY2LjA0NDYgNjcuMzk5MSA2NS43NTRDNjcuNjUgNjQuODUwOCA2OC4yMzg2IDY0LjA0NSA2OS4xMTA2IDYzLjUzNjNMODEuNjYyOCA1Ni4yOTM2QzgzLjQyNjUgNTUuMjc0NSA4NS42ODYgNTUuODgwMiA4Ni43MDcyIDU3LjY0ODJDODcuNzMwOSA1OS40MTQgODcuMTI1NyA2MS42Njg4IDg1LjM1NTEgNjIuNjkwNFpNMjg4LjkwNCA1NS40NjA2QzI4OC45MDQgNTcuNDkyNiAyODcuNTQ0IDU5LjE4ODYgMjg1LjI3MiA1OS4xODg2QzI4My4wMTYgNTkuMTg4NiAyODEuNjcyIDU3LjQ3NjYgMjgxLjY3MiA1NS40NjA2QzI4MS42NzIgNTMuNDI4NiAyODMuMDE2IDUxLjczMjYgMjg1LjI3MiA1MS43MzI2QzI4Ny41NDQgNTEuNzMyNiAyODguOTA0IDUzLjQyODYgMjg4LjkwNCA1NS40NjA2Wk0yODguMTg0IDU1LjQ2MDZDMjg4LjE4NCA1My43MzI2IDI4Ny4wMzIgNTIuNDIwNiAyODUuMjcyIDUyLjQyMDZDMjgzLjU0NCA1Mi40MjA2IDI4Mi4zOTIgNTMuNjY4NiAyODIuMzkyIDU1LjQ2MDZDMjgyLjM5MiA1Ny4xNzI2IDI4My41NDQgNTguNTAwNiAyODUuMjcyIDU4LjUwMDZDMjg3LjAzMiA1OC41MDA2IDI4OC4xODQgNTcuMTg4NiAyODguMTg0IDU1LjQ2MDZaTTI4My44NDggNTMuNzgwNkgyODUuNEMyODYuMjQ4IDUzLjc4MDYgMjg2LjgwOCA1NC4yNDQ2IDI4Ni44MDggNTQuOTY0NkMyODYuODA4IDU1LjQxMjYgMjg2LjU4NCA1NS43NDg2IDI4Ni4yNDggNTUuOTU2NkwyODYuODU2IDU2LjgzNjZWNTcuMDEyNkgyODUuOTc2TDI4NS4zODQgNTYuMTY0NkgyODQuNjk2VjU3LjAxMjZIMjgzLjg0OFY1My43ODA2Wk0yODUuMzg0IDU0LjU2NDZIMjg0LjY5NlY1NS40MTI2SDI4NS4zODRDMjg1LjcwNCA1NS40MTI2IDI4NS45MTIgNTUuMjY4NiAyODUuOTEyIDU0Ljk5NjZDMjg1LjkxMiA1NC43MDg2IDI4NS43MiA1NC41NjQ2IDI4NS4zODQgNTQuNTY0NloiIGZpbGw9IiMyOUI1RTgiLz4KPC9zdmc+Cg==;" parent="1" vertex="1">
          <mxGeometry x="161" y="79" width="317" height="133" as="geometry" />
        </mxCell>
        <mxCell id="7sl2i-Y2lmcS3EekDP7u-5" value="" style="strokeWidth=2;html=1;shape=mxgraph.flowchart.database;whiteSpace=wrap;" parent="1" vertex="1">
          <mxGeometry x="181" y="229" width="60" height="60" as="geometry" />
        </mxCell>
        <mxCell id="7sl2i-Y2lmcS3EekDP7u-7" value="DB(Dev|Prod)" style="text;html=1;align=center;verticalAlign=middle;resizable=0;points=[];autosize=1;strokeColor=none;fillColor=none;" parent="1" vertex="1">
          <mxGeometry x="241" y="244" width="100" height="30" as="geometry" />
        </mxCell>
        <mxCell id="7sl2i-Y2lmcS3EekDP7u-10" value="" style="strokeWidth=2;html=1;shape=mxgraph.flowchart.database;whiteSpace=wrap;" parent="1" vertex="1">
          <mxGeometry x="201" y="327" width="60" height="30" as="geometry" />
        </mxCell>
        <mxCell id="7sl2i-Y2lmcS3EekDP7u-11" value="Schema" style="text;html=1;align=center;verticalAlign=middle;resizable=0;points=[];autosize=1;strokeColor=none;fillColor=none;" parent="1" vertex="1">
          <mxGeometry x="256" y="327" width="70" height="30" as="geometry" />
        </mxCell>
        <mxCell id="_UhZb9Lw9bKP7ET5BVvL-1" value="" style="rounded=0;whiteSpace=wrap;html=1;" parent="1" vertex="1">
          <mxGeometry x="201" y="384" width="130" height="200" as="geometry" />
        </mxCell>
        <mxCell id="_UhZb9Lw9bKP7ET5BVvL-2" value="Original layer" style="text;html=1;align=center;verticalAlign=middle;resizable=0;points=[];autosize=1;strokeColor=none;fillColor=default;gradientColor=none;" parent="1" vertex="1">
          <mxGeometry x="216" y="369" width="90" height="30" as="geometry" />
        </mxCell>
        <mxCell id="_UhZb9Lw9bKP7ET5BVvL-3" value="" style="endArrow=classic;html=1;rounded=0;exitX=1;exitY=0.5;exitDx=0;exitDy=0;exitPerimeter=0;entryX=0;entryY=0.5;entryDx=0;entryDy=0;" parent="1" source="7sl2i-Y2lmcS3EekDP7u-1" target="_UhZb9Lw9bKP7ET5BVvL-14" edge="1">
          <mxGeometry width="50" height="50" relative="1" as="geometry">
            <mxPoint x="351" y="539" as="sourcePoint" />
            <mxPoint x="211" y="424.625" as="targetPoint" />
          </mxGeometry>
        </mxCell>
        <mxCell id="_UhZb9Lw9bKP7ET5BVvL-17" value="snow pipe" style="edgeLabel;html=1;align=center;verticalAlign=middle;resizable=0;points=[];" parent="_UhZb9Lw9bKP7ET5BVvL-3" vertex="1" connectable="0">
          <mxGeometry x="-0.049" relative="1" as="geometry">
            <mxPoint as="offset" />
          </mxGeometry>
        </mxCell>
        <mxCell id="_UhZb9Lw9bKP7ET5BVvL-14" value="table" style="rounded=0;whiteSpace=wrap;html=1;" parent="1" vertex="1">
          <mxGeometry x="233.5" y="403" width="65" height="40" as="geometry" />
        </mxCell>
        <mxCell id="_UhZb9Lw9bKP7ET5BVvL-18" value="S3 (Stage)" style="text;html=1;align=center;verticalAlign=middle;resizable=0;points=[];autosize=1;strokeColor=none;fillColor=none;" parent="1" vertex="1">
          <mxGeometry x="30" y="462" width="80" height="30" as="geometry" />
        </mxCell>
      </root>
    </mxGraphModel>
  </diagram>
</mxfile>
